HIERARCHY
ROOT Hips
{
  OFFSET 0 0.240689 0
  CHANNELS 6 Xposition Yposition Zposition Zrotation Xrotation Yrotation
  JOINT Bip01_Spine0
  {
    OFFSET 0 -24.7459 49.7988
    CHANNELS 6 Xposition Yposition Zposition Zrotation Xrotation Yrotation
    JOINT Bip01_Pelvis
    {
      OFFSET 0 0 0
      CHANNELS 6 Xposition Yposition Zposition Zrotation Xrotation Yrotation
      JOINT Bip01_Spine0_Tail
      {
        OFFSET -6.47486 -3.86022 0
        CHANNELS 6 Xposition Yposition Zposition Zrotation Xrotation Yrotation
        JOINT Bip01_Spine0_Tail1
        {
          OFFSET 10.3837 -0.00825882 0
          CHANNELS 6 Xposition Yposition Zposition Zrotation Xrotation Yrotation
          JOINT Bip01_Spine0_Tail2
          {
            OFFSET 10.3837 -0.00826263 0
            CHANNELS 6 Xposition Yposition Zposition Zrotation Xrotation Yrotation
            JOINT Bip01_Spine0_Tail3
            {
              OFFSET 10.3837 -0.00825882 0
              CHANNELS 6 Xposition Yposition Zposition Zrotation Xrotation Yrotation
              JOINT Bip01_Spine0_Tail4
              {
                OFFSET 10.3837 -0.00826263 0
                CHANNELS 6 Xposition Yposition Zposition Zrotation Xrotation Yrotation
                End Site
                {
                  OFFSET 0 0 0
                }
              }
            }
          }
        }
      }
      JOINT Bip01_R_Thigh
      {
        OFFSET 0 -1.52588e-005 -8.75617
        CHANNELS 6 Xposition Yposition Zposition Zrotation Xrotation Yrotation
        JOINT Bip01_R_Calf
        {
          OFFSET 19.7638 0 0
          CHANNELS 6 Xposition Yposition Zposition Zrotation Xrotation Yrotation
          JOINT Bip01_R_Foot
          {
            OFFSET 18.6534 0 0
            CHANNELS 6 Xposition Yposition Zposition Zrotation Xrotation Yrotation
            JOINT Bip01_R_Toe0
            {
              OFFSET 5.09145 13.9567 0
              CHANNELS 6 Xposition Yposition Zposition Zrotation Xrotation Yrotation
              JOINT Bip01_R_Toe01
              {
                OFFSET 4.28803 0 0
                CHANNELS 6 Xposition Yposition Zposition Zrotation Xrotation Yrotation
                JOINT Bip01_R_Toe02
                {
                  OFFSET 3.85801 0 0
                  CHANNELS 6 Xposition Yposition Zposition Zrotation Xrotation Yrotation
                  End Site
                  {
                    OFFSET 0 0 0
                  }
                }
              }
            }
          }
        }
      }
      JOINT Bip01_L_Thigh
      {
        OFFSET 0 1.52588e-005 8.75617
        CHANNELS 6 Xposition Yposition Zposition Zrotation Xrotation Yrotation
        JOINT Bip01_L_Calf
        {
          OFFSET 19.7638 0 0
          CHANNELS 6 Xposition Yposition Zposition Zrotation Xrotation Yrotation
          JOINT Bip01_L_Foot
          {
            OFFSET 18.6534 0 0
            CHANNELS 6 Xposition Yposition Zposition Zrotation Xrotation Yrotation
            JOINT Bip01_L_Toe0
            {
              OFFSET 5.09144 13.9567 0
              CHANNELS 6 Xposition Yposition Zposition Zrotation Xrotation Yrotation
              JOINT Bip01_L_Toe01
              {
                OFFSET 4.28802 0 0
                CHANNELS 6 Xposition Yposition Zposition Zrotation Xrotation Yrotation
                JOINT Bip01_L_Toe02
                {
                  OFFSET 3.85801 0 0
                  CHANNELS 6 Xposition Yposition Zposition Zrotation Xrotation Yrotation
                  End Site
                  {
                    OFFSET 0 0 0
                  }
                }
              }
            }
          }
        }
      }
      JOINT Bip01_Spine
      {
        OFFSET 9.14835 -0.00640869 -1.1e-005
        CHANNELS 6 Xposition Yposition Zposition Zrotation Xrotation Yrotation
        JOINT Bip01_Spine1
        {
          OFFSET 8.04366 -0.00638199 0
          CHANNELS 6 Xposition Yposition Zposition Zrotation Xrotation Yrotation
          JOINT Bip01_Spine2
          {
            OFFSET 8.04367 -0.00639343 0
            CHANNELS 6 Xposition Yposition Zposition Zrotation Xrotation Yrotation
            JOINT Bip01_Spine3
            {
              OFFSET 8.04304 -0.00831222 0
              CHANNELS 6 Xposition Yposition Zposition Zrotation Xrotation Yrotation
              JOINT Bip01_Neck
              {
                OFFSET 10.6685 1.06813 0
                CHANNELS 6 Xposition Yposition Zposition Zrotation Xrotation Yrotation
                JOINT Bip01_R_Clavicle
                {
                  OFFSET -3.21661 -4.89635 -9.04802
                  CHANNELS 6 Xposition Yposition Zposition Zrotation Xrotation Yrotation
                  JOINT Bip01_R_UpperArm
                  {
                    OFFSET 19.0492 0 0
                    CHANNELS 6 Xposition Yposition Zposition Zrotation Xrotation Yrotation
                    JOINT Bip01_R_Forearm
                    {
                      OFFSET 10.3706 0 0
                      CHANNELS 6 Xposition Yposition Zposition Zrotation Xrotation Yrotation
                      JOINT Bip01_R_Hand
                      {
                        OFFSET 22.8632 0 0
                        CHANNELS 6 Xposition Yposition Zposition Zrotation Xrotation Yrotation
                        JOINT Bip01_R_Finger0
                        {
                          OFFSET 6.48259 0.103651 0.504496
                          CHANNELS 6 Xposition Yposition Zposition Zrotation Xrotation Yrotation
                          JOINT Bip01_R_Finger01
                          {
                            OFFSET 3.66847 0 0
                            CHANNELS 6 Xposition Yposition Zposition Zrotation Xrotation Yrotation
                            End Site
                            {
                              OFFSET 0 0 0
                            }
                          }
                        }
                      }
                    }
                  }
                }
                JOINT Bip01_L_Clavicle
                {
                  OFFSET -3.21661 -4.89641 9.04797
                  CHANNELS 6 Xposition Yposition Zposition Zrotation Xrotation Yrotation
                  JOINT Bip01_L_UpperArm
                  {
                    OFFSET 19.0492 0 0
                    CHANNELS 6 Xposition Yposition Zposition Zrotation Xrotation Yrotation
                    JOINT Bip01_L_Forearm
                    {
                      OFFSET 10.3706 0 0
                      CHANNELS 6 Xposition Yposition Zposition Zrotation Xrotation Yrotation
                      JOINT Bip01_L_Hand
                      {
                        OFFSET 22.8631 0 0
                        CHANNELS 6 Xposition Yposition Zposition Zrotation Xrotation Yrotation
                        JOINT Bip01_L_Finger0
                        {
                          OFFSET 6.48257 0.103655 -0.504492
                          CHANNELS 6 Xposition Yposition Zposition Zrotation Xrotation Yrotation
                          JOINT Bip01_L_Finger01
                          {
                            OFFSET 3.66844 0 0
                            CHANNELS 6 Xposition Yposition Zposition Zrotation Xrotation Yrotation
                            End Site
                            {
                              OFFSET 0 0 0
                            }
                          }
                        }
                      }
                    }
                  }
                }
                JOINT Bip01_Neck1
                {
                  OFFSET 7.52459 -0.00656509 0
                  CHANNELS 6 Xposition Yposition Zposition Zrotation Xrotation Yrotation
                  JOINT Bip01_Neck2
                  {
                    OFFSET 8.4783 -0.00588226 0
                    CHANNELS 6 Xposition Yposition Zposition Zrotation Xrotation Yrotation
                    JOINT Bip01_Head
                    {
                      OFFSET 8.41606 0 0
                      CHANNELS 6 Xposition Yposition Zposition Zrotation Xrotation Yrotation
                      JOINT EyesBlue
                      {
                        OFFSET 0 0 0
                        CHANNELS 6 Xposition Yposition Zposition Zrotation Xrotation Yrotation
                        JOINT EyesBlue_2
                        {
                          OFFSET 0 -0.500007 0
                          CHANNELS 6 Xposition Yposition Zposition Zrotation Xrotation Yrotation
                          End Site
                          {
                            OFFSET 0 0 0
                          }
                        }
                      }
                      JOINT Bip01_Head2_Eyeleds
                      {
                        OFFSET 6.52751 7.61746 2.2e-005
                        CHANNELS 6 Xposition Yposition Zposition Zrotation Xrotation Yrotation
                        End Site
                        {
                          OFFSET 0 0 0
                        }
                      }
                      JOINT Bip01_Head_Muzzle
                      {
                        OFFSET 2.88628 13.9448 3.88994
                        CHANNELS 6 Xposition Yposition Zposition Zrotation Xrotation Yrotation
                        End Site
                        {
                          OFFSET 0 0 0
                        }
                      }
                      JOINT Bip01_Head1_Jaw
                      {
                        OFFSET 0.271065 1.32405 0
                        CHANNELS 6 Xposition Yposition Zposition Zrotation Xrotation Yrotation
                        JOINT _Bip01_Head11_TungeControler
                        {
                          OFFSET 4.61616 5.82872 0
                          CHANNELS 6 Xposition Yposition Zposition Zrotation Xrotation Yrotation
                          JOINT _Bip01_Ponytail3_tunge
                          {
                            OFFSET 5.17785 2.98805 0
                            CHANNELS 6 Xposition Yposition Zposition Zrotation Xrotation Yrotation
                            JOINT Bip01_Ponytail31
                            {
                              OFFSET 5.57569 0 0
                              CHANNELS 6 Xposition Yposition Zposition Zrotation Xrotation Yrotation
                              JOINT Bip01_Ponytail32
                              {
                                OFFSET 2.93165 0 0
                                CHANNELS 6 Xposition Yposition Zposition Zrotation Xrotation Yrotation
                                JOINT Bip01_Ponytail3Nub
                                {
                                  OFFSET 3.30155 0 0
                                  CHANNELS 6 Xposition Yposition Zposition Zrotation Xrotation Yrotation
                                  End Site
                                  {
                                    OFFSET 0 0 0
                                  }
                                }
                              }
                            }
                          }
                        }
                        JOINT Bip01_Head_JawNub
                        {
                          OFFSET 15.5776 -0.000389099 0
                          CHANNELS 6 Xposition Yposition Zposition Zrotation Xrotation Yrotation
                          End Site
                          {
                            OFFSET 0 0 0
                          }
                        }
                      }
                      JOINT Bip01_Ponytail2
                      {
                        OFFSET 9.40334 1.03973 -6.51764
                        CHANNELS 6 Xposition Yposition Zposition Zrotation Xrotation Yrotation
                        JOINT Bip01_Ponytail21
                        {
                          OFFSET 2.77018 -0.00640106 1.33514e-005
                          CHANNELS 6 Xposition Yposition Zposition Zrotation Xrotation Yrotation
                          End Site
                          {
                            OFFSET 0 0 0
                          }
                        }
                      }
                      JOINT Bip01_Ponytail1
                      {
                        OFFSET 9.40368 1.03969 6.51768
                        CHANNELS 6 Xposition Yposition Zposition Zrotation Xrotation Yrotation
                        JOINT Bip01_Ponytail11
                        {
                          OFFSET 2.77018 -0.00640487 0
                          CHANNELS 6 Xposition Yposition Zposition Zrotation Xrotation Yrotation
                          End Site
                          {
                            OFFSET 0 0 0
                          }
                        }
                      }
                    }
                  }
                }
              }
            }
          }
        }
      }
    }
  }
}
MOTION
Frames:	4
Frame Time:	0.0333333
0 0 -1e-006 -0 -90 -0 -0.261849 -24.7459 50.4629 90 -3.50835e-015 90 0 0 0 -90 -3.50835e-015 -90 -6.45929 -3.86079 0.44028 133.257 2.8418 -2.67083 10.3793 -0.007175 9.61409e-012 -29.7613 -1.9221e-005 7.79619e-005 10.3834 -0.00827 1.22054e-010 0.498894 1.0099e-005 9.93767e-006 10.3852 -0.008052 1.18017e-010 13.1311 -6.17895e-006 -4.42391e-005 10.3847 -0.008152 8.61338e-011 9.584 6.72822e-006 -1.86285e-005 9.38274e-006 -1.5e-005 -8.75617 -97.4887 -11.9751 173.961 19.7638 2e-006 -8.88179e-014 -60.8858 0.000285848 0.00109962 18.6534 0 1e-006 -27.4931 1.39994 7.55404 5.09143 13.9567 1.00974e-006 114.82 3.1002 1.66868 4.288 1e-006 -4.9738e-014 53.6716 8.43272 1.28952 3.85799 -8.88178e-016 -7.10543e-015 -45 -1.59537e-005 -4.75323e-006 -1.73827e-005 1.1e-005 8.75617 -110.948 -4.43258 -179.21 19.7638 2e-006 -1.77636e-014 -63.6032 5.22355e-005 0.000223349 18.6534 3e-006 -1.95399e-014 -25.4986 1.14714 -5.71847 5.09143 13.9567 -9.3375e-007 115 1.55586e-006 5.00001 4.288 -1e-006 1.59872e-014 51.474 -6.03002 0.26355 3.85799 2.66454e-015 -1e-006 -45 -1.14238e-005 -1.33056e-005 9.12717 -0.00640418 -0.622128 0.0455222 0.00290955 3.95345 8.04366 -0.006401 -1.75906e-011 -8.9421e-007 4.30013e-005 0.054077 8.04367 -0.006401 -1.7355e-011 -8.94212e-007 4.30012e-005 0.054077 8.04304 -0.008319 -2.22284e-011 -4.29873 4.89066e-005 0.054089 10.67 1.06796 1.87415e-006 0.69085 8.64356e-008 1.00984e-005 -4.30511 -3.97478 -9.04793 179.271 -85.4175 115.009 19.0492 -3.55272e-015 0 89.7446 8.41524 -103.465 10.3706 -8.88179e-015 -8.88178e-016 -58.5373 0.000150598 0.000514062 22.8631 1e-006 -1e-006 -16.6199 -0.172736 2.45092 6.48256 0.103653 0.504498 -68.7322 -2.18843 -14.2873 3.66843 -1.77636e-015 -1.24345e-014 34.6071 -2.74749e-005 3.65618e-005 -4.30511 -3.97472 9.04798 179.263 85.4165 -114.999 19.0492 1.06581e-014 3e-006 88.6321 -8.3152 99.4943 10.3706 2e-006 9.99999e-007 -58.5393 0.000620049 0.00220898 22.8631 -1e-006 -4.08562e-014 -16.4593 -8.55724 -2.45403 6.48255 0.103651 -0.504496 -75.9429 0.955999 15.4702 3.66843 1e-006 -2e-006 40.107 -1.86827e-005 1.29565e-005 7.52562 -0.006729 7.87416e-010 -4.48654 -1.34838e-006 1.14755e-005 8.47686 -0.006454 6.01051e-010 15.6197 -1.64482e-005 -4.32873e-005 8.41604 7e-006 6.79457e-013 -74.0219 0.196455 -0.0880093 -3e-006 -3.90799e-014 -3e-006 -23.1098 1.37701e-015 90 1.91454e-006 -0.500008 6.34607e-006 180 90 -90 0 0 0 -113.549 1.52588e-005 -180 2.8863 13.9448 3.88993 -22.989 1.37021e-015 90 0 0 0 -85.3358 -7.01671e-015 -180 0 0 0 -120.289 -1.56132e-006 -1.88865e-005 0 0 0 133.74 -2.34438e-005 4.0236e-006 0 0 0 -0.168468 4.18469e-008 9.8356e-009 0 0 0 -22.6319 2.49251e-006 1.27111e-006 0 0 0 -26.1943 1.01013e-006 2.45579e-007 15.5776 -0.000396 -7.00001e-006 -5.51738e-033 -7.95139e-016 -3.97569e-016 9.40333 1.03972 -6.51764 -19.0867 17.2452 20.3009 2.77018 -0.006404 1.00095e-006 2.43506 4.14561e-007 -1.69762e-005 9.40368 1.03969 6.51767 -19.0868 -17.2452 -20.3008 2.77018 -0.006408 -3.00098e-006 2.43506 -4.44306e-007 -1.76708e-005 
0 0 -1e-006 -0 -90 -0 -0.321266 -24.6825 50.4629 90.319 -3.5083e-015 90 0 0 0 -90 -3.50835e-015 -90 -6.45929 -3.86079 0.44028 133.942 2.74162 -3.39458 10.3793 -0.007175 1.92544e-011 -29.0724 -0.0679989 -0.689818 10.3834 -0.00827 1.37636e-010 -1.57369 0.0190675 -0.693648 10.3852 -0.008052 1.42133e-010 13.7607 -0.290333 -1.54576 10.3847 -0.008152 1.17701e-010 10.2722 -0.123216 -0.679912 9e-006 -1.5e-005 -8.75617 -97.2703 -12.6929 173.655 19.7638 2e-006 -9.23706e-014 -60.6356 0.000290724 0.00109824 18.6534 0 1e-006 -27.4789 1.18644 7.18871 5.09143 13.9567 9.61609e-007 114.814 3.14712 1.77084 4.288 1e-006 -5.68434e-014 53.6716 8.43272 1.28952 3.85799 0 0 -45 -1.57988e-005 -4.67083e-006 -1.7e-005 1.1e-005 8.75617 -110.961 -4.40939 -179.246 19.7638 2e-006 -3.01981e-014 -63.6221 5.2208e-005 0.000223349 18.6534 3e-006 -3.19744e-014 -25.4928 1.23001 -5.39901 5.09143 13.9567 -9.38124e-007 115 1.57187e-006 5.00001 4.288 -1e-006 1.06581e-014 51.474 -6.03002 0.26355 3.85799 -8.88179e-015 -1e-006 -45 -1.13788e-005 -1.32719e-005 9.12717 -0.006404 -0.622128 0.0455125 0.00307482 4.16148 8.04366 -0.006401 -1.65807e-011 -1.02139e-005 4.29624e-005 0.262105 8.04367 -0.006401 -1.56106e-011 -1.02139e-005 4.29614e-005 0.262105 8.04304 -0.008319 -1.91469e-011 -4.29866 -0.0154996 0.260936 10.67 1.06796 1.88329e-006 -1.04877 -0.403241 0.98433 -4.02745 -4.0388 -9.14621 -165.85 -85.6866 128.195 19.0492 1.77636e-015 0 89.9329 8.31963 -103.551 10.3706 -1.24345e-014 5.32907e-015 -58.617 0.000150009 0.000514487 22.8631 1e-006 -1e-006 -16.6631 1.82828 2.08717 6.48256 0.103653 0.504498 -68.7322 -2.18842 -14.2873 3.66843 2.08722e-014 -3.55271e-015 34.6071 -3.32014e-005 4.06933e-005 -4.33577 -4.16572 8.94612 169.807 84.9372 -103.772 19.0492 3.55272e-015 3e-006 89.2401 -8.09551 100.073 10.3706 2e-006 9.99999e-007 -58.3581 0.000626912 0.00220755 22.8631 -1e-006 -4.26325e-014 -16.7347 -8.3917 -2.14886 6.48255 0.103651 -0.504496 -75.9429 0.956001 15.4702 3.66843 1e-006 -2e-006 40.107 -2.04321e-005 1.3994e-005 7.52562 -0.006729 6.01068e-010 -4.4318 -0.556171 0.900453 8.47686 -0.006454 3.25168e-010 15.6744 -0.55618 0.900399 8.41604 7e-006 2.44249e-013 -73.3845 -1.92041 1.13076 -3e-006 -2.13163e-014 -3e-006 -23.1098 1.37701e-015 90 1.94649e-006 -0.500008 6.35017e-006 -180 90 -90 0 0 0 -113.549 1.52588e-005 -180 2.8863 13.9448 3.88993 -22.989 1.37021e-015 90 0 0 0 -83.9952 -7.01671e-015 -180 0 0 0 -115.676 1.59048e-006 -2.15667e-005 0 0 0 128.459 0.377582 -1.01684 0 0 0 0.230195 -9.83138e-009 1.33471e-008 0 0 0 -23.0631 1.25357e-006 -1.29756e-006 0 0 0 -26.1943 1.53472e-006 -1.89857e-006 15.5776 -0.000396 -6.99999e-006 3.18055e-015 -1.59028e-015 1.59028e-015 9.40333 1.03972 -6.51764 -18.0665 14.5729 20.0234 2.77018 -0.006404 1.00047e-006 2.4351 -2.60193 0.00206332 9.40368 1.03969 6.51767 -19.7208 -18.8663 -20.4959 2.77018 -0.006408 -3.00118e-006 2.43506 -4.16152e-007 -1.77458e-005 
0 0 -1e-006 -0 -90 -0 -0.383766 -24.6131 50.4629 90.6702 -3.50811e-015 90 0 0 0 -90 -3.50835e-015 -90 -6.45929 -3.86079 0.44028 134.71 2.61899 -4.20543 10.3793 -0.007175 2.97913e-011 -28.3002 -0.154055 -1.4632 10.3834 -0.00827 1.55759e-010 -3.89913 0.100194 -1.46955 10.3852 -0.008052 1.71656e-010 14.4575 -0.636062 -3.27704 10.3847 -0.008152 1.55904e-010 11.0419 -0.280774 -1.43858 9e-006 -1.5e-005 -8.75617 -97.0343 -13.4383 173.351 19.7638 2e-006 -1.13687e-013 -60.3559 0.000296167 0.00109668 18.6534 1.42109e-014 1e-006 -27.4651 0.970905 6.83489 5.09143 13.9567 9.08006e-007 114.807 3.19584 1.877 4.288 1e-006 -5.32907e-014 53.6716 8.43272 1.28952 3.85799 3.9968e-015 -3.55271e-015 -45 -1.56274e-005 -4.58127e-006 -1.7e-005 1.1e-005 8.75617 -110.982 -4.38661 -179.283 19.7638 2e-006 -1.95399e-014 -63.6422 5.21812e-005 0.000223347 18.6534 3e-006 -3.55271e-014 -25.4924 1.32541 -5.05044 5.09143 13.9567 -9.43169e-007 115 1.59063e-006 5.00001 4.288 -1e-006 1.06581e-014 51.474 -6.03002 0.26355 3.85799 -7.99361e-015 -1e-006 -45 -1.13218e-005 -1.32287e-005 9.12717 -0.006404 -0.622128 0.0455007 0.00324463 4.37526 8.04366 -0.006401 -1.53717e-011 -1.03737e-005 4.29278e-005 0.475889 8.04367 -0.006401 -1.39704e-011 -1.03738e-005 4.29258e-005 0.475889 8.04304 -0.008319 -1.65983e-011 -4.29847 -0.0314774 0.473506 10.67 1.06796 1.89262e-006 -2.83984 -0.850975 1.98888 -3.72298 -4.09822 -9.24771 -148.802 -85.6601 143.411 19.0492 -5.32907e-015 7.10543e-015 90.1705 8.16654 -103.675 10.3706 1.77636e-014 8.88178e-016 -58.764 0.00014882 0.000515087 22.8631 1e-006 -1e-006 -16.6674 4.08935 1.65883 6.48256 0.103653 0.504498 -68.7322 -2.18844 -14.2873 3.66843 -2.30927e-014 2.66453e-015 34.6071 -2.05908e-005 3.21207e-005 -4.36081 -4.37289 8.834 161.815 84.2698 -93.8625 19.0492 0 3e-006 89.8793 -7.8159 100.699 10.3706 2e-006 9.99999e-007 -58.2323 0.000631611 0.00220676 22.8631 -1e-006 -6.4837e-014 -17.011 -8.20351 -1.82138 6.48255 0.103651 -0.504496 -75.9429 0.956003 15.4702 3.66843 1e-006 -2e-006 40.107 -2.24902e-005 1.52129e-005 7.52562 -0.006729 4.78219e-010 -4.36591 -1.1302 1.83209 8.47686 -0.006454 1.49126e-010 15.7404 -1.13021 1.83204 8.41604 7e-006 2.04281e-014 -72.5943 -4.21895 2.33955 -3e-006 -2.4869e-014 -3e-006 -23.1098 1.37701e-015 90 1.97869e-006 -0.500008 6.35367e-006 -180 90 -90 0 0 0 -113.549 1.52588e-005 -180 2.8863 13.9448 3.88993 -22.989 1.37021e-015 90 0 0 0 -82.6544 -1.52588e-005 -180 0 0 0 -111.063 3.52085e-006 -2.36223e-005 0 0 0 123.192 0.754839 -2.03384 0 0 0 0.628859 -1.00276e-007 6.38826e-008 0 0 0 -23.4943 2.71564e-006 -2.28028e-006 0 0 0 -26.1943 2.38646e-006 -3.51427e-006 15.5776 -0.000396 -6.99997e-006 8.82781e-032 3.18055e-015 -1.59028e-015 9.40333 1.03972 -6.51764 -16.9622 11.6009 19.7758 2.77018 -0.006404 9.99872e-007 2.43526 -5.52257 0.00440908 9.40368 1.03969 6.51767 -20.395 -20.5542 -20.7219 2.77018 -0.006408 -3.00119e-006 2.43506 -3.83509e-007 -1.7748e-005 
0 0 -1e-006 -0 -90 -0 -0.446086 -24.5416 50.4629 91.0267 -3.50779e-015 90 0 0 0 -90 -3.50835e-015 -90 -6.45929 -3.86079 0.44028 135.483 2.4841 -5.02248 10.3793 -0.007175 4.04299e-011 -27.5216 -0.251579 -2.243 10.3834 -0.00827 1.74652e-010 -6.24487 0.245824 -2.24521 10.3852 -0.008052 2.04105e-010 15.1505 -1.0065 -5.02119 10.3847 -0.008152 1.98166e-010 11.8157 -0.460335 -2.19943 9e-006 -1.5e-005 -8.75617 -96.7947 -14.1679 173.063 19.7638 2e-006 -1.06581e-013 -60.0651 0.000301817 0.00109505 18.6534 0 1e-006 -27.4536 0.762913 6.50475 5.09143 13.9567 8.53545e-007 114.801 3.2436 1.98115 4.288 1e-006 -5.68434e-014 53.6716 8.43272 1.28952 3.85799 6.66133e-015 0 -45 -1.54538e-005 -4.49183e-006 -1.7e-005 1.1e-005 8.75617 -111.007 -4.36544 -179.317 19.7638 2e-006 -3.19744e-014 -63.6613 5.21591e-005 0.000223345 18.6534 3e-006 -3.37508e-014 -25.4879 1.42505 -4.69921 5.09143 13.9567 -9.4839e-007 115 1.61035e-006 5.00001 4.288 -1e-006 1.24345e-014 51.474 -6.03002 0.26355 3.85799 -3.55271e-015 -1e-006 -45 -1.12556e-005 -1.31776e-005 9.12717 -0.006404 -0.622128 0.0454878 0.00342138 4.59782 8.04366 -0.006401 -1.14562e-011 1.67785e-005 4.32168e-005 0.69845 8.04367 -0.006401 -1.04439e-011 1.67784e-005 4.3216e-005 0.69845 8.04304 -0.008319 -1.23337e-011 -4.29814 -0.0481089 0.694804 10.67 1.06796 1.90102e-006 -4.70306 -1.35223 3.02317 -3.41349 -4.14739 -9.34457 -133.022 -85.3075 157.35 19.0492 0 -7.10543e-015 90.4091 7.99282 -103.801 10.3706 -7.10543e-015 8.88178e-016 -58.9439 0.000147334 0.000515771 22.8631 1e-006 -1e-006 -16.6296 6.36819 1.22433 6.48256 0.103653 0.504498 -68.7322 -2.18845 -14.2873 3.66843 -3.33067e-015 -8.88178e-015 34.6071 -1.21094e-005 2.62873e-005 -4.3774 -4.58079 8.71952 155.8 83.4902 -85.9181 19.0492 -1.77636e-015 3e-006 90.5077 -7.50544 101.323 10.3706 2e-006 9.99999e-007 -58.1451 0.000634846 0.00220637 22.8631 -1e-006 -5.77316e-014 -17.2759 -8.00935 -1.49277 6.48255 0.103651 -0.504496 -75.9429 0.956005 15.4702 3.66843 1e-006 -2e-006 40.107 -2.43148e-005 1.62832e-005 7.52562 -0.006729 3.90383e-010 -4.28713 -1.72881 2.80655 8.47686 -0.006454 2.95213e-011 15.8191 -1.72882 2.8065 8.41604 7e-006 -4.61853e-014 -71.7254 -6.53384 3.43278 -3e-006 -6.39489e-014 -3e-006 -23.1098 1.37701e-015 90 2.00871e-006 -0.500008 6.35666e-006 -180 90 -90 0 0 0 -113.549 1.52588e-005 -180 2.8863 13.9448 3.88993 -22.989 1.37021e-015 90 0 0 0 -81.3138 -1.52588e-005 -180 0 0 0 -106.449 4.04128e-006 -2.46124e-005 0 0 0 117.937 1.13138 -3.05109 0 0 0 1.02752 -2.51425e-007 1.10921e-007 0 0 0 -23.9256 4.49862e-006 -2.40613e-006 0 0 0 -26.1943 3.32402e-006 -4.37966e-006 15.5776 -0.000396 -6.99996e-006 -6.36111e-015 -1.59028e-015 -3.18055e-015 9.40333 1.03972 -6.51764 -15.8704 8.59532 19.5868 2.77018 -0.006404 9.99305e-007 2.43557 -8.47213 0.00678902 9.40368 1.03969 6.51767 -21.108 -22.297 -20.9809 2.77018 -0.006408 -3.001e-006 2.43506 -3.64957e-007 -1.76792e-005 
